<svg width="716" height="162" viewBox="0 0 716 162" fill="none" xmlns="http://www.w3.org/2000/svg">
<path d="M632.233 70.334L679.912 108.122V125.815C679.912 129.528 677.507 132.805 674.445 132.805H672.257C668.977 132.805 666.79 129.528 666.79 125.815V101.569H632.233V138.921L654.979 161.637H693.254L716 138.921V90.4294L668.321 52.4229V35.8223C668.321 32.109 670.726 28.8326 673.788 28.8326H675.976C679.256 28.8326 681.443 32.109 681.443 35.8223V59.1941H716V22.7166L693.254 0H654.979L632.233 22.7166V70.334ZM564.651 133.897L579.086 142.197L564.651 150.497V161.637H600.52V31.0169H623.266V0H541.904V31.0169H564.651V70.5524L579.086 78.8527L564.651 87.153V102.225L579.086 110.525L564.651 118.825V133.897ZM466.018 161.637H533.382V130.62H502.106V95.4533H530.757V64.4364H502.106V31.0169H533.382V0H466.018V161.637ZM370.878 70.334L418.558 108.122V125.815C418.558 129.528 416.152 132.805 413.09 132.805H410.903C407.622 132.805 405.435 129.528 405.435 125.815V101.569H370.878V138.921L393.624 161.637H431.899L454.645 138.921V90.4294L406.966 52.4229V35.8223C406.966 32.109 409.372 28.8326 412.434 28.8326H414.621C417.902 28.8326 420.089 32.109 420.089 35.8223V59.1941H454.645V22.7166L431.899 0H393.624L370.878 22.7166V70.334ZM310.732 132.805V28.8326H318.387C321.668 28.8326 324.074 32.109 324.074 35.8223V125.815C324.074 129.528 321.668 132.805 318.387 132.805H310.732ZM274.645 74.2657L289.08 82.566L274.645 90.8663V161.637H337.437L360.183 138.921V22.7166L337.437 0H274.666V10.9214L289.102 19.2217L274.666 27.522V42.5936L289.102 50.8939L274.666 59.1941L274.645 74.2657ZM210.999 0H176.661V161.637H210.78V91.9584H212.771L230.705 161.637H261.544V0H227.643V65.5286H225.675L210.999 0ZM127.473 161.637H163.56V0H127.473V161.637ZM0.823242 135.863L15.2583 144.163L0.823242 152.463V161.637H33.1928V79.9449H35.3799L49.1588 161.637H66.4371L79.9973 79.9449H82.1845V161.637H114.35V0H68.1868L59.0009 69.6787H56.8138L47.6278 0H0.823242V72.5183L15.2583 80.8186L0.823242 89.1189V104.19L15.2583 112.491L0.823242 120.791V135.863Z" fill="white"/>
</svg>
