<svg  viewBox="0 0 50 66" fill="none" xmlns="http://www.w3.org/2000/svg">
<path d="M26.0069 32.8043H25.7015C25.6099 32.792 25.5198 32.7712 25.4322 32.7421C25.0281 32.6444 24.7677 32.7865 24.7048 33.133C24.6796 33.2243 24.6745 33.3198 24.6896 33.4133C24.7047 33.5067 24.7397 33.5959 24.7924 33.6749C24.845 33.7539 24.9142 33.821 24.995 33.8715C25.0759 33.922 25.1668 33.9549 25.2615 33.968C25.3782 33.968 25.504 33.968 25.6207 33.968C25.6943 33.9555 25.7698 33.9608 25.8409 33.9832C25.912 34.0056 25.9766 34.0445 26.0293 34.0967C26.0821 34.1489 26.1215 34.2128 26.1441 34.2831C26.1667 34.3535 26.172 34.4282 26.1594 34.5009C26.1594 34.7763 26.1594 35.0605 26.1594 35.3448C26.1558 35.6433 26.186 35.9412 26.2493 36.2331C26.375 36.7749 26.7971 36.8815 27.1473 36.4907C27.2115 36.4289 27.2686 36.3604 27.3178 36.2864C27.4315 36.1257 27.5768 35.9894 27.745 35.8856C27.9132 35.7818 28.1007 35.7127 28.2965 35.6823C28.4561 35.6485 28.6123 35.6009 28.7635 35.5402C28.7096 35.1316 29.0778 35.0606 29.2574 34.8385V34.9095C29.3633 34.891 29.4682 34.8673 29.5716 34.8385C29.6614 34.8385 29.7333 34.723 29.8231 34.6964C29.9129 34.6697 29.9398 34.6964 29.9847 34.7585C29.5806 34.874 29.3921 35.1849 29.1496 35.4603H29.2035H29.5357C29.5357 35.558 29.4639 35.6735 29.419 35.7712C29.3807 35.8351 29.3356 35.8946 29.2844 35.9488C29.3069 35.9661 29.3331 35.978 29.361 35.9838C29.3889 35.9896 29.4177 35.9891 29.4454 35.9822C29.473 35.9754 29.4988 35.9624 29.5207 35.9443C29.5425 35.9262 29.56 35.9035 29.5716 35.8778C29.6102 35.7977 29.6665 35.7273 29.7365 35.672C29.8065 35.6166 29.8883 35.5776 29.9757 35.558C30.0924 35.558 30.1553 35.4425 30.0476 35.3093C29.998 35.2254 29.9588 35.1359 29.9308 35.0428L30.0386 35.105C30.1912 35.2204 30.3348 35.3359 30.5324 35.105C30.5324 35.105 30.7299 35.0517 30.7479 35.105C30.7942 35.2009 30.8275 35.3024 30.8468 35.407L31.1969 35.2204V35.2737C31.1652 35.452 31.0982 35.6224 30.9996 35.7749C30.9009 35.9273 30.7727 36.0589 30.6223 36.162C30.3137 36.3277 29.9887 36.4617 29.6524 36.5618C29.6524 36.5618 29.6524 36.5618 29.6524 36.615L31.0712 36.4107C31.053 36.5796 30.9802 36.7382 30.8637 36.863C30.7473 36.9877 30.5933 37.0721 30.4246 37.1036C30.2181 37.1747 30.1463 37.299 30.2271 37.4944L30.5594 38.3205C30.6686 38.4852 30.7433 38.67 30.7788 38.8638C30.8143 39.0576 30.8098 39.2566 30.7659 39.4487C30.6413 39.7097 30.4845 39.9543 30.2989 40.177C29.814 40.8521 29.3113 41.5184 28.8174 42.1935C28.7607 42.2473 28.7224 42.3174 28.7079 42.3938C28.6934 42.4703 28.7034 42.5493 28.7365 42.6198C28.7365 42.6642 28.6648 42.8064 28.5929 42.8508C28.4617 42.9027 28.3266 42.9443 28.1888 42.9752C27.8476 43.0729 27.8207 43.1173 27.9375 43.4637C27.7023 43.6612 27.5462 43.9352 27.4974 44.2365C27.3971 44.7039 27.1717 45.136 26.8447 45.4876C26.5177 45.8393 26.1012 46.0974 25.6387 46.2352C25.4331 46.2818 25.2488 46.394 25.1141 46.5545C24.9794 46.7151 24.9019 46.915 24.8934 47.1234C24.8457 47.369 24.7672 47.6077 24.66 47.8341C24.6471 47.8956 24.6471 47.9591 24.66 48.0206C24.7049 48.2249 24.7587 48.4292 24.8036 48.6335C24.7985 48.6748 24.7985 48.7166 24.8036 48.7579C24.8844 48.8822 24.8036 48.9444 24.7138 48.9977C24.6209 49.0434 24.5431 49.1143 24.4893 49.202H24.7228C25.1377 49.1402 25.5615 49.2185 25.926 49.4241C26.0215 49.5069 26.085 49.6199 26.1056 49.7439C26.2493 50.3657 26.1056 50.5167 25.513 50.57C25.0723 50.5831 24.6312 50.5653 24.193 50.5167L23.6183 50.4456L23.3669 50.3834C23.3669 50.3834 23.3669 50.3302 23.3669 50.3035C23.497 50.2444 23.6323 50.1968 23.771 50.1614C23.9116 50.1526 24.0525 50.1526 24.193 50.1614C24.2469 50.1614 24.3187 50.1614 24.3187 50.0992C24.3211 50.0717 24.3174 50.044 24.3081 50.018C24.2988 49.9919 24.2841 49.9681 24.2648 49.9482C24.1247 49.8576 23.9558 49.8211 23.7902 49.8456C23.6246 49.8702 23.474 49.9541 23.3669 50.0814C23.2423 50.301 23.0737 50.493 22.8714 50.6457C22.6692 50.7985 22.4375 50.9087 22.1906 50.9697C21.5028 51.2211 20.8532 51.5648 20.2601 51.9912C19.8666 52.2741 19.5372 52.6351 19.2928 53.0511C19.0485 53.4672 18.8948 53.9291 18.8414 54.4074C18.7785 54.7805 18.7425 55.1624 18.6887 55.5355C18.5684 56.2394 18.2891 56.9074 17.8715 57.4897C17.7133 57.7332 17.581 57.9922 17.4765 58.2625C17.4639 58.3075 17.4613 58.3547 17.469 58.4007C17.4768 58.4467 17.4946 58.4905 17.5213 58.529C17.5611 58.573 17.5831 58.6299 17.5831 58.6889C17.5831 58.7479 17.5611 58.8048 17.5213 58.8488C17.4638 58.9372 17.4186 59.0328 17.3867 59.133C17.2407 59.5887 16.9955 60.0071 16.6683 60.3589C16.6063 60.4289 16.5492 60.5031 16.4976 60.5809C16.6593 60.652 16.803 60.7053 16.9377 60.7764C17.0724 60.8474 17.1083 60.9007 17.0993 60.9185C17.0903 60.9362 17.243 61.2116 17.0095 61.2916C16.8873 61.3452 16.7612 61.3897 16.6324 61.4248C16.2928 61.4792 15.9714 61.6132 15.6949 61.8157C15.4184 62.0181 15.1948 62.2831 15.043 62.5885C14.8358 62.9166 14.5677 63.2029 14.2528 63.4323C13.9244 63.687 13.6626 64.016 13.4896 64.3917C13.395 64.5936 13.2458 64.7657 13.0586 64.8891C12.4551 65.2605 11.7937 65.5306 11.1012 65.6886C10.9607 65.7289 10.8128 65.7379 10.6684 65.7149C10.524 65.6918 10.3866 65.6373 10.266 65.5553C10.0595 65.431 9.82606 65.3333 9.61954 65.2C9.41301 65.0668 9.25133 65.0757 9.11664 65.2888C9.08414 65.3387 9.04127 65.381 8.99092 65.4132C8.93458 65.4644 8.8609 65.4928 8.78441 65.4928C8.70792 65.4928 8.63423 65.4644 8.5779 65.4132C8.50607 65.3599 8.48808 65.2444 8.4342 65.129C8.38674 65.217 8.34766 65.3092 8.31746 65.4043C8.31746 65.5731 8.16481 65.5731 8.08399 65.4843C7.99657 65.3782 7.93515 65.2535 7.90445 65.1201C7.90445 65.0757 8.00326 65.0135 8.05714 64.9513H8.11096C8.10536 64.9126 8.08997 64.8759 8.06613 64.8447C7.9045 64.6848 7.72487 64.5338 7.57222 64.3739C7.53313 64.3114 7.4729 64.2645 7.40221 64.2418C7.33152 64.219 7.25489 64.2217 7.18606 64.2495C6.93809 64.3271 6.68639 64.3923 6.43182 64.445C6.15346 64.4983 6.05465 64.445 5.9469 64.1518C5.86219 63.9296 5.75701 63.7155 5.63265 63.5123C5.60704 63.4203 5.55481 63.3378 5.48237 63.2749C5.40993 63.212 5.32047 63.1714 5.225 63.1582C5.12953 63.145 5.03228 63.1597 4.94516 63.2005C4.85804 63.2413 4.78485 63.3065 4.73471 63.3879C4.49455 63.62 4.17253 63.7506 3.83677 63.7521C3.33393 63.7521 2.84013 63.7521 2.33729 63.7521C2.23223 63.7529 2.12811 63.7317 2.03191 63.6899C1.96515 63.6643 1.90563 63.6232 1.85818 63.5702C1.81073 63.5171 1.77678 63.4536 1.7592 63.3849C1.74162 63.3162 1.74091 63.2444 1.75712 63.1754C1.77333 63.1063 1.80598 63.0422 1.85237 62.9882C1.98604 62.8611 2.1302 62.7452 2.28336 62.6418L2.67851 62.2953L2.63357 62.2332C2.42704 62.3664 2.22944 62.5085 2.01394 62.624C1.92471 62.6768 1.82784 62.7158 1.72665 62.7395C1.69601 62.7432 1.66488 62.7404 1.63545 62.7312C1.60601 62.722 1.57901 62.7066 1.55609 62.6862C1.54298 62.6568 1.53614 62.625 1.53614 62.5929C1.53614 62.5608 1.54298 62.529 1.55609 62.4996C1.64804 62.4064 1.74707 62.3203 1.85237 62.242L1.68171 61.8867C1.68171 61.9667 1.60987 62.0466 1.56497 62.1266C1.51289 62.2418 1.44978 62.3519 1.37644 62.4552C1.34115 62.5024 1.29315 62.5387 1.23789 62.56C1.18262 62.5812 1.12238 62.5866 1.06416 62.5755C1.00593 62.5643 0.952084 62.5371 0.908836 62.497C0.865587 62.4568 0.834674 62.4054 0.819722 62.3486C0.772601 62.2522 0.749961 62.1459 0.753845 62.0389C0.75773 61.9319 0.787984 61.8274 0.841973 61.7346C0.895962 61.6418 0.972141 61.5634 1.06372 61.5063C1.15529 61.4493 1.25952 61.4152 1.36745 61.4071L2.21157 61.3182C2.28697 61.3124 2.36034 61.2913 2.42706 61.256C2.49702 61.1755 2.56005 61.0893 2.61559 60.9984C2.5258 60.9984 2.43597 60.9984 2.35516 60.9984H1.91518C1.67273 60.3855 1.73563 60.2967 2.51683 60.1101C2.34634 60.119 2.17555 60.119 2.00506 60.1101C1.88753 60.0973 1.77255 60.0674 1.66384 60.0213C1.66384 59.9414 1.71768 59.8525 1.73563 59.7726C1.67278 59.3817 1.91525 59.364 2.21157 59.3818L2.05888 59.2574C1.9601 59.1774 1.85236 59.0975 1.95113 58.9465C2.00018 58.8857 2.06848 58.843 2.14503 58.8253C2.22159 58.8076 2.30191 58.8158 2.37313 58.8488L2.73233 59.0176L2.79525 58.9643L2.66053 58.6711C2.58997 58.5514 2.53558 58.4229 2.49886 58.2892C2.49886 58.0049 2.64249 57.8983 2.91187 58.0049L3.08254 58.0849C2.96581 57.7118 3.08254 57.5519 3.75599 57.4009C3.65722 57.3121 3.55839 57.2321 3.47758 57.1433C3.39676 57.0544 3.31595 56.8057 3.47758 56.708C3.78227 56.4863 4.06768 56.2397 4.33068 55.9707C4.39999 55.908 4.46035 55.8363 4.51023 55.7576C4.60632 55.6211 4.71778 55.496 4.84246 55.3845C4.92931 55.3052 5.00214 55.2121 5.05795 55.1091C5.16866 54.995 5.30822 54.9122 5.46209 54.8693C5.57882 54.8693 5.64161 54.816 5.61467 54.6827C5.57565 54.5221 5.58271 54.3538 5.63506 54.1969C5.6874 54.04 5.78303 53.9006 5.91106 53.7945C6.37132 53.3801 6.75164 52.8865 7.03348 52.3377C7.28962 51.916 7.69158 51.6004 8.16489 51.4494C8.58692 51.2895 9.06274 51.174 9.4309 50.9875C9.7119 50.8438 9.97677 50.6711 10.2211 50.4723C10.5354 50.2502 10.8047 49.9659 11.119 49.7794C11.9068 49.2793 12.6463 48.7084 13.328 48.0739C14.0898 47.3619 14.9031 46.7058 15.7614 46.1108C16.5969 45.5891 17.3123 44.8997 17.8614 44.0872C18.4105 43.2747 18.7811 42.3572 18.9491 41.394C19.0928 40.8699 19.2095 40.3458 19.3621 39.8217C19.4263 39.6308 19.5303 39.4553 19.6674 39.3065C19.788 39.1627 19.9514 39.0601 20.1343 39.0134C20.3723 38.9744 20.5992 38.8862 20.8003 38.7546C21.0015 38.623 21.1724 38.4509 21.3017 38.2495C21.7434 37.6682 22.0221 36.9818 22.1097 36.2597C22.1231 36.023 22.1231 35.7858 22.1097 35.5491C22.069 35.1838 22.1313 34.8145 22.2898 34.4821C22.4483 34.1497 22.6968 33.8672 23.0077 33.6659C23.3579 33.435 23.6633 33.1507 23.9955 32.8931C24.0242 32.8697 24.0458 32.839 24.0583 32.8043C24.0921 32.7218 24.1489 32.6505 24.222 32.5986C24.2951 32.5467 24.3815 32.5164 24.4713 32.5112C24.8993 32.4983 25.3251 32.5771 25.7195 32.7421V32.8043" fill="#00A8DE"/>
<path d="M48.8773 18.3342C48.3494 17.9219 47.6778 17.7334 47.0096 17.8101C46.6523 17.8633 46.312 17.9966 46.0148 18.1998C45.7175 18.4031 45.4712 18.6708 45.2945 18.9826C45.1449 19.2697 44.8867 19.4868 44.5761 19.5867C44.0916 19.6299 43.6271 19.7984 43.2292 20.0752C43.2292 19.64 42.8791 19.5245 42.6007 19.4001C42.1603 19.2149 41.7108 19.0519 41.2538 18.9116C40.655 18.7824 40.0933 18.5212 39.6106 18.1476C39.4725 17.9982 39.3047 17.8784 39.1178 17.7959C38.9309 17.7134 38.7287 17.6698 38.524 17.668C38.3894 17.668 38.3445 17.5969 38.3355 17.4726L38.12 14.7544C38.1353 14.3746 38.0485 13.9976 37.8686 13.6618C37.68 13.3864 37.5812 13.3598 37.2579 13.4842C37.2587 13.3895 37.2868 13.2971 37.3388 13.2177C37.4302 13.1396 37.5294 13.0711 37.6351 13.0134C37.7608 12.9334 37.9673 12.8624 37.8506 12.6669C37.7339 12.4715 37.6082 12.6669 37.4735 12.6669C37.3388 12.6669 37.231 12.738 37.1771 12.6669C37.1233 12.5959 36.818 12.507 36.8269 12.285C36.8295 12.1395 36.8004 11.9951 36.7415 11.8618C36.6827 11.7284 36.5954 11.6092 36.4857 11.5122C36.36 11.3967 36.2073 11.2812 36.0278 11.3878C35.8482 11.4944 35.929 11.6721 35.9739 11.8142C36.0188 11.9563 36.1536 12.3205 36.2434 12.5692C36.2922 12.6626 36.3176 12.7661 36.3176 12.8712C36.3176 12.9763 36.2922 13.0799 36.2434 13.1733C36.2209 13.2273 36.2209 13.288 36.2434 13.342C36.3377 13.5983 36.4185 13.8592 36.4857 14.1237C36.5527 14.4149 36.5769 14.714 36.5576 15.012C36.5286 15.0878 36.4816 15.1555 36.4207 15.2096C36.3598 15.2637 36.2867 15.3026 36.2074 15.3229C36.0997 15.3229 35.9111 15.2252 35.8392 15.1186C35.7416 14.9501 35.6633 14.7713 35.6058 14.5856C35.548 14.3591 35.4373 14.1492 35.2825 13.9727C35.0041 13.7595 34.7528 13.4309 34.3128 13.5108C34.3128 13.5108 34.223 13.5108 34.1781 13.4575C34.0299 13.3794 33.8686 13.3282 33.7021 13.3065C33.3699 13.3065 33.2262 13.0755 33.0197 12.9157C33.0214 12.895 33.0214 12.8742 33.0197 12.8535L33.6034 13.2088V13.1644C33.5226 12.8268 33.4417 12.4893 33.3519 12.134C33.4646 12.1157 33.5756 12.089 33.6842 12.054C33.6842 12.054 33.7471 11.9918 33.774 11.9474C33.801 11.903 33.7022 11.8764 33.6573 11.8675C33.6124 11.8586 33.5135 11.8675 33.4597 11.8675C33.4058 11.8675 33.2801 11.752 33.2711 11.6809C33.2576 11.4887 33.2576 11.2958 33.2711 11.1036H33.3339L33.4776 11.4322C33.6572 11.1924 33.5405 10.7571 34.0613 10.7749L33.7111 10.5084C33.9176 10.3485 33.8279 10.2686 33.6573 10.1442C33.3571 9.96026 33.1058 9.70777 32.9246 9.40793C32.7433 9.10809 32.6374 8.76963 32.6157 8.42094C32.6257 8.23014 32.5685 8.04179 32.454 7.88797C32.3462 7.77249 32.1308 7.76361 31.9332 7.70143C31.9557 7.6628 31.9828 7.627 32.014 7.59483C32.2116 7.70143 32.472 7.59484 32.6426 7.80802C32.6847 7.88466 32.7531 7.94384 32.8354 7.97481C32.9178 8.00578 33.0087 8.00649 33.0916 7.9768C32.9749 7.60372 32.876 7.23952 32.7772 6.89309C32.9568 6.89309 33.0197 6.83979 32.9479 6.60883C32.9169 6.52374 32.8746 6.4431 32.8222 6.36901C32.6695 6.12917 32.5079 5.89821 32.3642 5.65838C32.324 5.5803 32.2967 5.49632 32.2834 5.40966C32.2116 5.08988 32.1488 4.77898 32.0769 4.44143C31.7447 4.56579 31.5651 4.99216 31.179 4.75232C31.179 5.04546 31.4483 5.00105 31.583 5.13429H31.2058C31.1718 4.99483 31.1268 4.8582 31.0712 4.72568C30.9994 4.60132 30.9096 4.48584 30.8018 4.33483C30.8018 4.33483 30.8018 4.25489 30.8018 4.21936H31.0712C31.058 4.13378 31.0338 4.05019 30.9993 3.97063C30.8333 3.79089 30.6217 3.65826 30.3865 3.58643C30.1513 3.51459 29.901 3.50617 29.6614 3.56203C29.4818 3.64197 29.419 3.56203 29.3651 3.43767C29.3371 3.35898 29.313 3.27893 29.2932 3.19783C29.2862 3.16475 29.2722 3.13353 29.252 3.10622C29.2319 3.0789 29.2061 3.0561 29.1764 3.03933C29.1467 3.02255 29.1138 3.01217 29.0798 3.00887C29.0458 3.00557 29.0114 3.00942 28.979 3.02017C28.8483 3.06843 28.7222 3.12787 28.6019 3.19783C28.4044 3.30442 28.2338 3.30443 28.1619 3.13566C28.1222 3.02352 28.1222 2.90136 28.1619 2.78923C28.2607 2.57604 28.4134 2.37172 28.1619 2.16742C27.7309 2.44278 27.713 2.89582 27.704 3.35773C27.5064 3.30443 27.4435 3.19783 27.4974 3.06459C27.5383 2.95691 27.5482 2.84013 27.526 2.72721C27.5038 2.6143 27.4505 2.5097 27.3718 2.42503C27.0665 1.972 26.7612 1.53674 26.4738 1.03041C26.384 0.888288 26.3391 0.74617 26.1236 0.719522C26.2398 0.647954 26.3631 0.58841 26.4917 0.541854C26.5167 0.531032 26.5393 0.515187 26.5579 0.495309C26.5764 0.475432 26.5905 0.451964 26.5994 0.426387C26.643 0.304326 26.679 0.179733 26.7072 0.053309C26.6533 0.053309 26.5995 0.00889478 26.5456 0.053309C26.1415 0.115489 25.7195 0.168777 25.3244 0.266488C25.073 0.328668 25.0191 0.488559 25.1538 0.71063C25.2692 0.893386 25.4081 1.06059 25.5669 1.20807C25.8722 1.5012 26.2133 1.7677 26.5186 2.05195C26.8616 2.34525 27.1215 2.72177 27.2729 3.14453C27.3133 3.24936 27.323 3.36335 27.3007 3.47337C27.2785 3.58339 27.2253 3.68495 27.1473 3.76633C27.0199 3.88935 26.9324 4.04704 26.8958 4.21936C26.8719 4.38941 26.9171 4.56191 27.0215 4.69903C27.1112 4.77879 27.1791 4.8796 27.2191 4.99217C27.2456 5.04634 27.2787 5.09707 27.3178 5.14317L27.5243 4.98327C27.5243 5.20534 27.5243 5.36524 27.5243 5.52513C27.5243 5.93374 27.5244 5.98704 27.8835 6.03146C27.9239 6.26119 27.9933 6.48501 28.09 6.69767C28.2883 7.04454 28.5199 7.37175 28.7815 7.67479C29.4405 8.42077 29.9796 9.26264 30.3798 10.1709C30.4723 10.3566 30.5968 10.525 30.7479 10.6683C30.7723 10.695 30.8021 10.7163 30.8354 10.7309C30.8686 10.7455 30.9046 10.753 30.941 10.753C30.9774 10.753 31.0133 10.7455 31.0466 10.7309C31.0798 10.7163 31.1096 10.695 31.1341 10.6683C31.193 10.5758 31.2153 10.4651 31.1969 10.3574C31.1838 10.2611 31.1468 10.1695 31.0891 10.0909C30.9993 9.94878 30.9006 9.81555 30.8108 9.6823C30.9006 9.6823 30.9545 9.77114 31.0353 9.79778C31.2033 9.86534 31.3778 9.91593 31.5561 9.94879C31.6728 9.94879 31.7716 9.94879 31.6998 9.76225C31.616 9.73482 31.5399 9.68841 31.4776 9.62672C31.4152 9.56503 31.3683 9.48976 31.3406 9.40694C31.565 9.478 31.6908 9.55794 31.6998 9.76225L32.0679 9.60236C31.9871 9.74449 31.8793 9.91325 31.7985 10.082C31.7177 10.2508 31.7985 10.2508 31.8703 10.2508C31.9559 10.249 32.0408 10.234 32.1218 10.2064L32.3822 10.1176V10.1975C32.2924 10.1975 32.2026 10.2597 32.1128 10.2775C31.9788 10.2865 31.8463 10.3103 31.7177 10.3485C31.6742 10.367 31.6354 10.3949 31.6043 10.4303C31.5732 10.4657 31.5505 10.5076 31.5381 10.5528C31.5381 10.6328 31.6459 10.766 31.7177 10.7749C31.8786 10.7699 32.0384 10.746 32.1937 10.7038C32.2019 10.7865 32.2019 10.8698 32.1937 10.9525C32.1937 11.2546 32.1937 11.5566 32.1937 11.8408C32.1937 11.8408 32.1218 11.9208 32.0769 11.9563C32.032 11.9918 32.014 11.903 32.005 11.8675C31.9485 11.6539 31.8356 11.459 31.6778 11.3029C31.52 11.1468 31.323 11.0351 31.1071 10.9792C31.0858 11.2014 31.15 11.4234 31.2867 11.601C31.5772 12.0349 31.804 12.5075 31.9602 13.0045C32.0502 13.2561 32.1551 13.5023 32.2744 13.7418C32.2945 13.8047 32.3282 13.8625 32.3732 13.9112C32.4182 13.96 32.4735 13.9983 32.5351 14.0237C32.5967 14.0491 32.6631 14.0609 32.7298 14.0582C32.7964 14.0555 32.8616 14.0385 32.9209 14.0082C33.0736 14.0082 33.2173 13.875 33.3699 13.8217C33.5054 13.7827 33.6433 13.753 33.7829 13.7329C33.5315 13.9549 33.6033 14.0971 34.1241 14.4346L33.3879 14.8876C33.3746 14.7828 33.3443 14.6808 33.2981 14.5856C33.2442 14.4968 33.1185 14.3547 33.0736 14.3724C33.0287 14.3902 32.8042 14.5234 32.7862 14.6212C32.7646 15.0199 32.8997 15.4114 33.1634 15.7137C33.2801 15.9003 33.4687 15.8914 33.6573 15.9092L33.5584 16.0779C33.4914 16.1674 33.4441 16.2697 33.4193 16.3783C33.3946 16.4869 33.3931 16.5994 33.4148 16.7086L33.7201 17.7035C33.7249 17.8267 33.7656 17.9459 33.8373 18.0468C33.909 18.1477 34.0086 18.2259 34.1241 18.272C34.205 18.272 34.2768 18.3608 34.3936 18.423C33.8728 18.4852 33.7111 18.6273 33.6842 19.0093C33.6572 19.3912 33.6842 19.5511 33.6842 19.8443C33.8727 19.7821 34.0434 19.6489 34.205 19.8443C33.9716 20.1907 33.6573 20.164 33.3071 20.0308C33.3036 20.2971 33.2705 20.5622 33.2083 20.8214C32.9808 21.467 32.8625 22.1452 32.8581 22.8289C32.8669 23.1218 32.7945 23.4115 32.6489 23.6667C32.5033 23.9219 32.29 24.1328 32.032 24.2768C31.7918 24.4141 31.5429 24.5358 31.2867 24.641C30.9545 24.792 30.6043 24.8986 30.2721 25.0407C29.8821 25.1957 29.5627 25.4864 29.3741 25.8579C29.2968 25.9897 29.2476 26.1358 29.2298 26.2871C29.2119 26.4384 29.2258 26.5917 29.2704 26.7376C29.3151 26.8834 29.3895 27.0185 29.4892 27.1346C29.5889 27.2507 29.7117 27.3453 29.85 27.4124C29.9757 27.4835 30.1194 27.5368 30.2451 27.6168L31.8075 28.6027L33.2622 29.491C33.4777 29.6243 33.7111 29.7486 33.9266 29.8997C34.1069 30.0287 34.2465 30.2057 34.3291 30.4101C34.4118 30.6145 34.4341 30.8379 34.3936 31.0544C34.3711 31.1419 34.3711 31.2334 34.3936 31.3209C34.5957 31.9872 34.5957 32.6976 34.3936 33.364C34.0452 34.6693 33.3326 35.8513 32.3373 36.775C32.27 36.8326 32.207 36.8949 32.1487 36.9615C31.9961 37.148 32.0859 37.3168 32.2027 37.4678C32.2431 37.5457 32.3125 37.6049 32.3962 37.6331C32.48 37.6613 32.5716 37.6562 32.6516 37.6188C32.8492 37.53 32.8491 37.3701 32.7772 37.1836C32.7772 37.1836 32.7772 37.0859 32.7772 37.0326C32.7772 36.9793 32.903 37.0947 32.9119 37.1392C32.946 37.2821 32.9671 37.4278 32.9749 37.5744C32.9749 37.8853 33.1364 38.0008 33.4417 37.9475C33.5663 37.9263 33.6894 37.8966 33.8099 37.8587C33.8416 37.8462 33.8759 37.8411 33.91 37.8437C33.944 37.8463 33.977 37.8566 34.0064 37.8737C34.0359 37.8908 34.061 37.9144 34.0799 37.9426C34.0987 37.9707 34.1107 38.0028 34.1151 38.0363C34.178 38.2495 34.2858 38.4627 34.3576 38.6759C34.3851 38.775 34.4494 38.8602 34.5376 38.9146C34.6258 38.9689 34.7315 38.9883 34.8335 38.969C35.0037 38.9573 35.1693 38.9088 35.3185 38.8269C35.5381 38.6909 35.7453 38.5364 35.938 38.365C36.8729 37.4913 37.6799 36.4927 38.3355 35.3981C38.6378 34.8403 39.0428 34.3431 39.5297 33.9324C39.9616 33.5875 40.2752 33.1191 40.4277 32.5912C40.5411 32.3007 40.7156 32.0373 40.9395 31.8183C41.1642 31.5409 41.3625 31.2435 41.5321 30.9301C41.7476 30.5836 41.9362 30.2194 42.1158 29.8552C42.2954 29.491 42.3852 29.2778 42.5019 28.9669C42.5738 28.807 42.5019 28.7094 42.3493 28.6205C42.1761 28.5339 42.026 28.4083 41.9109 28.2537C41.7958 28.0992 41.719 27.9201 41.6867 27.7308C41.6543 27.5416 41.6674 27.3474 41.7248 27.1641C41.7822 26.9807 41.8823 26.8133 42.017 26.6752C42.3417 26.3435 42.7333 26.0832 43.1664 25.9112C43.7616 25.5963 44.4317 25.4459 45.106 25.476C45.5729 25.5204 45.6536 25.6536 45.6896 26.0267C45.7026 26.1886 45.7297 26.3491 45.7704 26.5064C45.8333 26.7107 45.959 26.7373 46.1207 26.6041C46.2217 26.5129 46.2946 26.3953 46.3311 26.2649C46.3676 26.1345 46.3663 25.9965 46.3272 25.8668C46.2643 25.5559 46.2014 25.2539 46.1475 24.9786C46.0793 24.6928 46.1229 24.392 46.2694 24.1367C46.4159 23.8813 46.6547 23.6902 46.9377 23.6017C47.2034 23.5172 47.44 23.361 47.6208 23.1507C47.8016 22.9404 47.9196 22.6844 47.9614 22.4114C48.001 21.8577 48.1003 21.3098 48.2576 20.777C48.2706 20.7396 48.2706 20.6989 48.2576 20.6615C48.2808 20.0633 48.5016 19.4892 48.8863 19.0271C49.0748 18.7339 49.0928 18.5385 48.8145 18.3342" fill="#00A8DE"/>
</svg>
