<svg viewBox="0 0 65 82" fill="none" xmlns="http://www.w3.org/2000/svg">
<path d="M56.8716 73.8H8.12187V8.20001H36.5575V28.7034H56.8716V73.8ZM40.6217 0H8.12187C5.95384 0.0233419 3.88313 0.89866 2.36158 2.43491C0.840035 3.97115 -0.00880947 6.04362 0.000351582 8.20001V73.8C-0.0197161 75.9526 0.820003 78.0252 2.33502 79.5626C3.85004 81.1 5.91655 81.9767 8.08087 82H56.8716C59.0408 81.9784 61.1133 81.1039 62.6364 79.5675C64.1594 78.0311 65.0091 75.9576 64.9999 73.8V24.6L40.6217 0ZM16.2502 41H48.75V49.2H16.2502V41ZM16.2502 57.4H48.75V65.634H16.2502V57.4Z" fill="#00A8DE"/>
</svg>
