<svg viewBox="0 0 80 72" fill="none" xmlns="http://www.w3.org/2000/svg">
<path d="M50.0495 37.5428L44.9869 40.291L39.1679 37.1365L36.8054 44.5746C37.8702 44.5746 38.9351 44.5387 40.0058 44.5387C42.3684 44.5387 44.661 44.6403 46.9014 44.8135L50.0495 37.5428ZM79.9768 53.1119C75.7336 55.0179 71.3546 56.5878 66.8781 57.8077C64.1853 56.9607 61.7899 55.3294 59.9826 53.1119C57.5502 55.9915 53.9831 58.2498 49.9855 58.2498C45.9878 58.2498 42.4207 55.9915 39.9883 53.1119C37.556 55.9915 33.989 58.2498 29.9913 58.2498C25.9936 58.2498 22.4265 55.9915 19.9942 53.1119C18.1637 55.3055 15.7738 56.9317 13.0928 57.8077C8.61801 56.5885 4.2409 55.0186 0 53.1119C7.61291 49.7659 15.5898 47.371 23.7591 45.9785L28.2572 31.6819C28.4975 30.9095 28.8843 30.1935 29.3952 29.5752C29.9061 28.9568 30.5311 28.4484 31.2342 28.0791C31.9374 27.7099 32.7047 27.487 33.4921 27.4235C34.2795 27.36 35.0713 27.457 35.822 27.709C36.1289 27.8127 36.4283 27.9384 36.7181 28.0854L44.952 32.5422L54.4137 27.3983L59.9128 14.679L58.2136 10.1564L62.6477 0L73.3081 4.89897L68.8798 15.0553L64.5331 16.7879L52.1385 45.3811C61.7303 46.6372 71.1065 49.2509 80 53.1477L79.9768 53.1119ZM40.0117 12.0084C38.6894 12.0049 37.396 12.4043 36.295 13.156C35.194 13.9077 34.3351 14.978 33.8269 16.2313C33.3188 17.4845 33.1843 18.8644 33.4406 20.1962C33.6968 21.528 34.3323 22.7517 35.2664 23.7124C36.2006 24.6732 37.3914 25.3277 38.6881 25.5931C39.9848 25.8585 41.329 25.7229 42.5506 25.2034C43.7722 24.6839 44.8161 23.8039 45.5502 22.6749C46.2844 21.5458 46.6756 20.2185 46.6745 18.861C46.6699 17.0471 45.9668 15.3087 44.7186 14.0249C43.4704 12.7412 41.7784 12.0163 40.0117 12.0084ZM70.003 71.9968C66.5156 71.9968 63.082 71.1144 60.0058 69.4278C56.9303 71.1165 53.4965 72 50.0088 72C46.5211 72 43.0872 71.1165 40.0117 69.4278C36.9361 71.1165 33.5023 72 30.0146 72C26.5269 72 23.093 71.1165 20.0175 69.4278C16.9398 71.1105 13.5072 71.9926 10.0204 71.9968H6.68606V65.1084H10.0204C13.6184 65.0568 17.1119 63.8584 20.0175 61.6791C22.9212 63.8517 26.4216 65.0223 30.0146 65.0223C33.6076 65.0223 37.1079 63.8517 40.0117 61.6791C42.9154 63.8517 46.4158 65.0223 50.0088 65.0223C53.6018 65.0223 57.1021 63.8517 60.0058 61.6791C62.9086 63.8641 66.4039 65.0631 70.003 65.1084H73.3314V71.9609L70.003 71.9968Z" fill="#00A8DE"/>
</svg>
