<svg  viewBox="0 0 58 79" fill="none" xmlns="http://www.w3.org/2000/svg">
<path d="M11.7093 42.7426L3.23009 41.2355C2.72029 41.15 2.23354 40.9706 1.79807 40.7075C1.3626 40.4444 0.986999 40.1029 0.692963 39.7027C0.398928 39.3025 0.192332 38.8516 0.0850431 38.376C-0.0222459 37.9004 -0.028087 37.4095 0.0679039 36.9318L3.12017 22.4908C3.5569 20.5665 4.78089 18.88 6.52879 17.7944C8.27669 16.7087 10.4088 16.3106 12.4663 16.6857L17.1057 17.5338L11.7093 42.7426ZM51.9993 34.1067C47.3202 32.8589 43.3193 29.9919 40.8035 26.0838L36.8051 20.2043C36.0057 19.0604 34.9122 18.1242 33.6254 17.4822C32.3386 16.8401 30.9001 16.513 29.4429 16.531C27.7864 16.498 26.1694 17.0081 24.8703 17.9735C23.5711 18.9389 22.6711 20.2992 22.325 21.8203C21.5681 25.2586 10.0061 78.9943 10.0061 78.9943H18.406L25.6032 49.6021L34.003 56.9487V78.9943H42.0061V51.4474L33.6063 44.1008L36.0053 33.0752C40.2152 37.4781 45.8231 40.4921 51.9993 41.671V79H58V27.5738H51.9993V34.1067ZM36.0053 14.7029C37.5469 14.6713 39.0443 14.2133 40.3097 13.3862C41.5752 12.5591 42.5524 11.3997 43.1188 10.0535C43.6853 8.70719 43.8158 7.2339 43.4941 5.81827C43.1724 4.40264 42.4127 3.10765 41.3103 2.09563C40.2078 1.08361 38.8117 0.399594 37.2969 0.129313C35.782 -0.140969 34.2159 0.0145189 32.7948 0.57628C31.3737 1.13804 30.1609 2.08109 29.3084 3.2872C28.4558 4.49331 28.0014 5.90883 28.0023 7.35632C28.0312 9.32515 28.8894 11.2031 30.389 12.5798C31.8887 13.9564 33.9079 14.7198 36.0053 14.7029Z" fill="#00A8DE"/>
</svg>
