<svg  viewBox="0 0 69 69" fill="none" xmlns="http://www.w3.org/2000/svg">
<path d="M34.5 43.125C22.9825 43.125 0 48.9034 0 60.375V69H69V60.375C69 48.9034 46.0109 43.125 34.5 43.125ZM34.5 1.24225e-06C31.0882 1.24225e-06 27.7532 1.01172 24.9164 2.90718C22.0797 4.80263 19.8687 7.49668 18.5631 10.6487C17.2575 13.8007 16.9159 17.2692 17.5815 20.6153C18.2471 23.9615 19.89 27.0352 22.3024 29.4476C24.7149 31.8601 27.7885 33.5029 31.1347 34.1685C34.4808 34.8341 37.9493 34.4926 41.1013 33.1869C44.2533 31.8813 46.9474 29.6704 48.8428 26.8336C50.7383 23.9969 51.75 20.6618 51.75 17.25C51.7509 14.9845 51.3053 12.741 50.4387 10.6477C49.5721 8.55446 48.3015 6.6525 46.6995 5.05052C45.0975 3.44853 43.1955 2.17795 41.1023 1.31136C39.009 0.44477 36.7655 -0.00085871 34.5 1.24225e-06ZM34.5 51.75C46.1417 51.75 59.5112 57.3124 60.375 60.375H8.62503C9.61317 57.2731 22.8974 51.75 34.5 51.75ZM34.5 8.62504C36.2058 8.62504 37.8734 9.13086 39.2918 10.0786C40.7102 11.0263 41.8156 12.3734 42.4684 13.9494C43.1212 15.5254 43.292 17.2596 42.9592 18.9327C42.6264 20.6058 41.805 22.1426 40.5988 23.3488C39.3925 24.555 37.8557 25.3765 36.1826 25.7093C34.5095 26.0421 32.7754 25.8713 31.1994 25.2185C29.6234 24.5657 28.2763 23.4602 27.3286 22.0418C26.3808 20.6234 25.875 18.9559 25.875 17.25C25.8819 14.9647 26.7928 12.7748 28.4088 11.1588C30.0248 9.54283 32.2146 8.63194 34.5 8.62504Z" fill="#00A8DE"/>
</svg>
