<svg  viewBox="0 0 46 45" fill="none" xmlns="http://www.w3.org/2000/svg">
<path d="M21.7371 31.2671C21.6179 31.1691 21.5284 31.0711 21.429 31.0025C20.3261 30.3068 19.0344 29.8659 18.3587 28.6313C18.3188 28.5795 18.263 28.5417 18.1997 28.5235C17.206 28.2001 16.2124 27.8474 15.2187 27.5436C14.6972 27.4346 14.2118 27.1979 13.8072 26.8555C13.4027 26.5131 13.0919 26.0758 12.9036 25.5839C12.5898 24.7756 12.1936 24.0008 11.7211 23.2715C11.2342 22.517 10.5883 21.8801 10.1014 21.1256C9.77909 20.6355 9.5626 20.0851 9.46548 19.5088C9.32146 18.2654 9.46416 17.006 9.88286 15.8246C10.1118 15.0984 10.2224 14.341 10.2107 13.5807C10.1575 12.5626 10.0448 11.5484 9.87291 10.5432C9.79035 10.3136 9.67674 10.096 9.5351 9.89646C9.35589 9.99803 9.18917 10.1197 9.03828 10.259C7.06741 12.5578 5.67124 15.2808 4.96206 18.2087C4.25288 21.1367 4.25052 24.1879 4.95514 27.1169C5.65977 30.046 7.05171 32.771 9.019 35.0728C10.9863 37.3746 13.474 39.189 16.282 40.3699C18.5517 41.3191 21.0015 41.7768 23.466 41.7123C23.8446 40.5593 23.9599 39.338 23.8038 38.1358C23.7094 37.7665 23.5173 37.4284 23.2473 37.156C22.6412 36.4995 21.906 35.941 21.3695 35.1963C20.2764 33.7755 20.3757 32.8838 21.5283 31.512C21.5979 31.4238 21.6477 31.3357 21.7271 31.2279L21.7371 31.2671ZM41.1926 17.8823C40.7455 17.1866 40.4275 16.6574 40.0599 16.1479C39.8803 15.9038 39.6699 15.6832 39.4339 15.4914C39.1159 15.2269 38.7482 15.0211 38.4402 14.7369C38.295 14.6221 38.1747 14.4797 38.0863 14.3181C37.9979 14.1566 37.9432 13.9792 37.9256 13.7965C37.9079 13.6137 37.9278 13.4293 37.9838 13.2543C38.0397 13.0792 38.1308 12.917 38.2515 12.7772C38.4784 12.478 38.7205 12.1902 38.9768 11.915C38.5396 11.376 38.1322 10.8665 37.7049 10.3668C37.5512 10.1817 37.3608 10.0297 37.1453 9.91989C36.9298 9.81011 36.6938 9.74497 36.4518 9.72845C36.2099 9.71193 35.967 9.74438 35.7383 9.82382C35.5095 9.90327 35.2996 10.028 35.1215 10.1904C34.7638 10.5138 34.5054 10.9351 34.1278 11.2585C33.9254 11.4606 33.6508 11.5767 33.3627 11.5818C32.9173 11.3574 32.5305 11.0346 32.2324 10.6386C31.9342 10.2426 31.7327 9.78409 31.6437 9.29875C31.7556 8.04687 31.504 6.78945 30.9184 5.67329C30.7863 5.4153 30.5739 5.20582 30.3123 5.07558C26.2172 3.48862 21.6911 3.3501 17.5042 4.68363C17.3616 4.73842 17.2251 4.80737 17.0967 4.8894V5.06577C17.9612 5.06577 18.8257 5.06578 19.6901 5.15397C21.27 5.27155 22.9294 5.00699 24.3007 6.13382C24.5391 6.32979 24.9267 6.56496 24.9267 6.79032C24.9267 7.01569 24.5988 7.30964 24.3404 7.47622C23.2474 8.16211 22.1146 8.77942 21.0315 9.43592C20.88 9.5324 20.7579 9.66774 20.6784 9.82743C20.599 9.98712 20.5651 10.1651 20.5804 10.3424C20.5958 10.5196 20.6597 10.6894 20.7654 10.8335C20.8711 10.9777 21.0147 11.0907 21.1806 11.1605C22.0948 11.621 23.2773 11.8464 23.2375 13.2966C23.2445 12.9737 23.3408 12.659 23.5159 12.3861C23.691 12.1133 23.9383 11.8928 24.2312 11.7484C24.2968 11.6783 24.3438 11.5934 24.3681 11.5011C24.3924 11.4087 24.393 11.3119 24.3702 11.2193C23.9429 10.2394 24.6385 9.66128 25.1452 9.04397C25.243 8.97723 25.3567 8.93672 25.4752 8.92641C25.5936 8.9161 25.7128 8.93636 25.821 8.98519C26.4172 9.49471 26.9537 10.0728 27.6194 10.7293C28.7422 10.6313 28.4938 10.5726 28.8813 11.8758C28.954 12.0726 29.0618 12.2551 29.1994 12.4147C29.4677 12.7674 29.7756 13.081 30.0141 13.3945C30.3818 13.9236 30.2725 14.2372 29.6564 14.4234C29.0404 14.6095 28.6628 14.6095 28.1858 14.7271C28.0591 14.7442 27.9379 14.7892 27.8312 14.8587C27.7244 14.9281 27.6349 15.0203 27.5691 15.1285C27.5033 15.2366 27.4628 15.3579 27.4509 15.4835C27.439 15.6091 27.4559 15.7357 27.5002 15.854C27.7784 16.8338 27.7089 16.9416 26.6954 17.1278C26.3911 17.1714 26.0893 17.2303 25.7911 17.3041C25.6255 17.3503 25.4748 17.4381 25.3539 17.5589C25.0458 17.8627 24.7677 18.2056 24.4497 18.5388C23.9728 18.9797 23.2772 19.3031 23.0387 19.842C22.8148 20.4235 22.4538 20.9441 21.9855 21.3607C21.7448 21.5362 21.5473 21.7631 21.4079 22.0244C21.2685 22.2857 21.1908 22.5747 21.1806 22.8697C21.1435 23.1537 21.0561 23.4289 20.9222 23.683C20.6738 23.5066 20.4254 23.3302 20.1671 23.1637C19.9087 22.9971 19.6107 22.6737 19.3324 22.6737C18.5236 22.6921 17.7169 22.7641 16.9178 22.8893C16.8049 22.9023 16.6961 22.9386 16.5985 22.9961C16.5008 23.0535 16.4167 23.1306 16.3515 23.2225C16.1746 23.7831 16.0417 24.3564 15.954 24.9372C15.9385 25.1438 15.9897 25.3499 16.1004 25.5259C16.2111 25.702 16.3755 25.8389 16.5701 25.9171C17.206 26.2404 17.822 26.4364 18.3983 25.7897C18.5197 25.6602 18.6742 25.5654 18.8456 25.5153C18.9946 25.4663 19.2529 25.4271 19.3225 25.5153C19.377 25.5894 19.4156 25.6736 19.4361 25.7629C19.4566 25.8522 19.4585 25.9446 19.4417 26.0346C19.3616 26.3485 19.2587 26.6564 19.1338 26.9557C19.2239 26.9977 19.3168 27.0338 19.4119 27.0635C20.5943 27.3379 20.5646 27.4065 20.5944 28.3569C20.5944 28.5333 20.7037 28.8272 20.813 28.8566C21.4787 29.033 22.1444 29.3662 22.8002 29.0232C23.1326 28.8143 23.5112 28.6875 23.9038 28.6534C24.2964 28.6193 24.6915 28.6789 25.0558 28.8272C25.2636 28.8981 25.4819 28.9346 25.7017 28.935C26.7195 28.935 27.7007 29.3087 28.4541 29.9834C28.6032 30.1304 28.8615 30.1598 29.0304 30.2872C29.5471 30.6693 30.0241 31.0613 30.5408 31.4728C30.8289 31.708 31.0574 32.0901 31.3854 32.2175C31.9413 32.4052 32.5133 32.5429 33.0944 32.6291C33.7999 32.7662 34.4159 33.6089 34.088 34.1674C33.2633 35.4608 32.7566 36.9894 31.4152 37.9301C30.9879 38.2338 30.5905 38.5768 30.193 38.9099C29.3584 39.6448 28.5435 40.3797 27.6592 41.1734C30.2269 40.5919 32.6416 39.4833 34.7457 37.92C36.8498 36.3566 38.5963 34.3735 39.8711 32.0999C39.7618 31.9726 39.6823 31.8942 39.6227 31.806C39.2212 31.2879 38.9372 30.691 38.7898 30.0554C38.6424 29.4198 38.6349 28.7604 38.7681 28.1217C39.2893 26.4521 39.9541 24.8295 40.7554 23.2715C40.9608 22.9469 41.2843 22.712 41.6596 22.615C41.774 22.606 41.8849 22.5714 41.9837 22.5139C42.0825 22.4563 42.1667 22.3773 42.2299 22.2828C42.2932 22.1884 42.3338 22.0809 42.3486 21.9687C42.3634 21.8565 42.3521 21.7424 42.3154 21.6351C42.3154 21.3901 42.3154 21.1354 42.2558 20.959C41.8881 21.0668 41.5304 21.3019 41.2621 21.2236C41.0146 21.1056 40.7982 20.9327 40.6298 20.7183C40.4615 20.504 40.3458 20.2541 40.2919 19.9883C40.238 19.7224 40.2472 19.4479 40.3191 19.1862C40.3909 18.9245 40.5232 18.6827 40.7057 18.48C40.8851 18.2938 41.0448 18.0903 41.1827 17.8725L41.1926 17.8823ZM23.7045 44.8478C19.2537 45.0043 14.8554 43.8579 11.0643 41.5532C7.27312 39.2485 4.25872 35.8885 2.40104 31.897C0.543359 27.9054 -0.0744002 23.4609 0.625532 19.1236C1.32546 14.7864 3.31176 10.7505 6.33414 7.52476C9.35652 4.29903 13.2797 2.02782 17.6091 0.997424C21.9384 -0.0329727 26.4802 0.223568 30.662 1.73471C34.8437 3.24585 38.4781 5.94394 41.1072 9.4889C43.7363 13.0339 45.2424 17.267 45.4355 21.6547C45.5863 24.5924 45.1403 27.5302 44.1241 30.2957C43.1078 33.0611 41.5415 35.5985 39.5173 37.759C37.4931 39.9194 35.0516 41.6594 32.3362 42.8767C29.6208 44.094 26.6861 44.7642 23.7045 44.8478Z" fill="#00A8DE"/>
</svg>
