<svg  viewBox="0 0 301 30" fill="none" xmlns="http://www.w3.org/2000/svg">
<path fill-rule="evenodd" clip-rule="evenodd" d="M282.305 7.8135C278.515 9.70879 276.979 14.3175 278.874 18.1072C280.77 21.897 285.378 23.4328 289.168 21.5375C292.958 19.6422 294.494 15.0335 292.598 11.2438C290.703 7.45397 286.094 5.91819 282.305 7.8135ZM271.458 11.295C272.427 7.21427 275.129 3.5755 279.174 1.55278C286.421 -2.07174 295.235 0.865228 298.859 8.11272C302.484 15.3602 299.547 24.1737 292.299 27.7982C285.052 31.4228 276.238 28.4858 272.614 21.2383C272.106 20.2229 271.727 19.1768 271.47 18.1186C271.216 18.1772 270.952 18.2082 270.68 18.2082H28.9234C27.3521 24.6192 21.5677 29.3758 14.6723 29.3758C6.56901 29.3758 0 22.8067 0 14.7035C0 6.60019 6.56901 0.0311803 14.6723 0.0311803C21.5711 0.0311803 27.3578 4.79244 28.9257 11.2082H270.68C270.948 11.2082 271.208 11.2382 271.458 11.295ZM14.6723 7.03118C10.435 7.03118 7 10.4662 7 14.7035C7 18.9408 10.435 22.3758 14.6723 22.3758C18.9096 22.3758 22.3446 18.9408 22.3446 14.7035C22.3446 10.4662 18.9096 7.03118 14.6723 7.03118Z" fill="#00A8DE"/>
</svg>
