<svg viewBox="0 0 77 79" fill="none" xmlns="http://www.w3.org/2000/svg">
<path fill-rule="evenodd" clip-rule="evenodd" d="M42.349 70.3486L7.69802 35.4131V8.25081H34.651V8.21043L69.3019 43.1123L42.349 70.3486ZM74.7296 37.661L40.0786 2.76583C38.6337 1.31511 36.6816 0.506676 34.651 0.518008H7.69802C5.66788 0.514391 3.71878 1.32772 2.27645 2.78035C0.834117 4.23298 0.0157387 6.2069 4.27908e-06 8.271V35.4131C-0.0010674 36.4382 0.19917 37.4532 0.589033 38.3985C0.978896 39.3439 1.55049 40.2005 2.27031 40.9183L36.9213 75.8201C38.3687 77.2671 40.3192 78.0749 42.349 78.068C43.3581 78.0742 44.3582 77.875 45.2904 77.482C46.2226 77.089 47.0679 76.5102 47.7766 75.7798L74.7296 48.6376C75.4515 47.9285 76.0248 47.0782 76.4149 46.1379C76.8051 45.1975 77.0041 44.1867 76.9999 43.1661C76.9889 41.098 76.1726 39.1186 74.7296 37.661ZM17.329 12.1274C18.4593 12.138 19.5614 12.4886 20.4961 13.135C21.4308 13.7814 22.1564 14.6947 22.5814 15.7597C23.0065 16.8247 23.1119 17.9938 22.8845 19.1197C22.6571 20.2455 22.107 21.2778 21.3036 22.0863C20.5001 22.8948 19.4793 23.4433 18.3697 23.6629C17.2601 23.8824 16.1114 23.7631 15.0683 23.3199C14.0253 22.8767 13.1347 22.1295 12.5087 21.1725C11.8827 20.2155 11.5492 19.0915 11.5505 17.9421C11.5593 16.3922 12.1728 14.9092 13.2563 13.8189C14.3397 12.7286 15.8046 12.1202 17.329 12.1274ZM27.1702 44.4579C26.7737 43.4922 26.5694 42.4562 26.5689 41.4097L26.5755 41.403C26.589 39.8221 27.0618 38.2805 27.9348 36.9723C28.8077 35.664 30.0416 34.6473 31.4814 34.0503C32.9211 33.4532 34.5023 33.3024 36.0262 33.6168C37.55 33.9311 38.9484 34.6967 40.0454 35.8171L42.3554 38.1053L44.6655 35.7834C46.1536 34.2898 48.1609 33.4531 50.252 33.4548C51.8052 33.4397 53.3276 33.8958 54.6245 34.7648C55.9215 35.6339 56.9343 36.8763 57.5332 38.3335C58.1322 39.7906 58.2902 41.3963 57.9872 42.9452C57.6841 44.4942 56.9338 45.9161 55.8319 47.0293L42.3488 60.6037L28.879 47.036C28.1475 46.2998 27.5667 45.4236 27.1702 44.4579Z" fill="#00A8DE"/>
</svg>
